<svg version="1.1" xmlns="http://www.w3.org/2000/svg" viewBox="0 0 851.3332977294922 240.3027136260702" width="851.3332977294922" height="240.3027136260702">
  <!-- svg-source:excalidraw -->
  
  <defs>
    <style class="style-fonts">
      @font-face {
        font-family: "Virgil";
        src: url("https://file%2B.vscode-resource.vscode-cdn.net/c%3A/Users/chris/.vscode/extensions/pomdtr.excalidraw-editor-3.7.4/public//dist/excalidraw-assets/Virgil.woff2");
      }
      @font-face {
        font-family: "Cascadia";
        src: url("https://file%2B.vscode-resource.vscode-cdn.net/c%3A/Users/chris/.vscode/extensions/pomdtr.excalidraw-editor-3.7.4/public//dist/excalidraw-assets/Cascadia.woff2");
      }
      @font-face {
        font-family: "Assistant";
        src: url("https://file%2B.vscode-resource.vscode-cdn.net/c%3A/Users/chris/.vscode/extensions/pomdtr.excalidraw-editor-3.7.4/public//dist/excalidraw-assets/Assistant-Regular.woff2");
      }
    </style>
    
  </defs>
  <rect x="0" y="0" width="851.3332977294922" height="240.3027136260702" fill="#ffffff"></rect><g stroke-linecap="round"><g transform="translate(251.32846976043078 10.095718819620089) rotate(0 -0.0023923688072500227 109.89994833182371)"><path d="M0.06 0.62 C-0.03 37.16, -0.34 183.54, -0.38 220.21 M-1.36 -0.1 C-1.66 35.99, -1.58 181.84, -1.53 218.3" stroke="#1e1e1e" stroke-width="2" fill="none"></path></g><g transform="translate(251.32846976043078 10.095718819620089) rotate(0 -0.0023923688072500227 109.89994833182371)"><path d="M-11.81 190.12 C-7.3 198.38, -4.41 207.62, -1.53 218.3 M-11.81 190.12 C-7.25 200.74, -4.18 209.92, -1.53 218.3" stroke="#1e1e1e" stroke-width="2" fill="none"></path></g><g transform="translate(251.32846976043078 10.095718819620089) rotate(0 -0.0023923688072500227 109.89994833182371)"><path d="M8.71 190.1 C6.75 198.38, 3.16 207.63, -1.53 218.3 M8.71 190.1 C5.75 200.92, 1.31 210.1, -1.53 218.3" stroke="#1e1e1e" stroke-width="2" fill="none"></path></g></g><mask></mask><g stroke-linecap="round"><g transform="translate(595.430479634927 13.065235915706722) rotate(0 1.3321245148831053 103.09258880453714)"><path d="M-0.82 0.87 C-0.41 35.17, 2.01 172.35, 2.79 206.64 M0.95 0.28 C1.19 34.14, 1.45 170.71, 1.91 204.75" stroke="#1e1e1e" stroke-width="2" fill="none"></path></g><g transform="translate(595.430479634927 13.065235915706722) rotate(0 1.3321245148831053 103.09258880453714)"><path d="M-8.54 176.63 C-3.5 186.07, -0.79 197, 1.91 204.75 M-8.54 176.63 C-5.77 187, -1.75 195.86, 1.91 204.75" stroke="#1e1e1e" stroke-width="2" fill="none"></path></g><g transform="translate(595.430479634927 13.065235915706722) rotate(0 1.3321245148831053 103.09258880453714)"><path d="M11.98 176.49 C10.34 185.83, 6.38 196.81, 1.91 204.75 M11.98 176.49 C7.86 186.94, 4.98 195.85, 1.91 204.75" stroke="#1e1e1e" stroke-width="2" fill="none"></path></g></g><mask></mask><g stroke-linecap="round"><g transform="translate(253.32130807602 33.65820259776399) rotate(0 169.72483842899587 21.814586833171532)"><path d="M-0.68 0.67 C55.72 7.8, 281.58 36.28, 338.41 43.5 M1.17 -0.03 C57.93 7.23, 284.1 38, 340.58 44.98" stroke="#1e1e1e" stroke-width="2" fill="none"></path></g><g transform="translate(253.32130807602 33.65820259776399) rotate(0 169.72483842899587 21.814586833171532)"><path d="M311.3 51.5 C321.23 47.97, 328.77 49.23, 340.58 44.98 M311.3 51.5 C321.56 49.48, 330.51 46.27, 340.58 44.98" stroke="#1e1e1e" stroke-width="2" fill="none"></path></g><g transform="translate(253.32130807602 33.65820259776399) rotate(0 169.72483842899587 21.814586833171532)"><path d="M313.96 31.15 C323.2 33.76, 329.94 41.17, 340.58 44.98 M313.96 31.15 C323.46 35.86, 331.53 39.37, 340.58 44.98" stroke="#1e1e1e" stroke-width="2" fill="none"></path></g></g><mask></mask><g stroke-linecap="round" transform="translate(10 10.409485796393739) rotate(0 113 21.333328247070312)"><path d="M10.67 0 C69.88 -1.92, 124.38 -1.72, 215.33 0 M10.67 0 C86.58 0.23, 161.97 0.16, 215.33 0 M215.33 0 C223.52 1.83, 227.26 4.51, 226 10.67 M215.33 0 C222.05 -1.06, 225.37 2.73, 226 10.67 M226 10.67 C225.18 18.11, 225.09 24.27, 226 32 M226 10.67 C225.67 17.61, 226.86 26.43, 226 32 M226 32 C227.8 38.27, 222.73 43.4, 215.33 42.67 M226 32 C223.84 36.91, 221.09 43.34, 215.33 42.67 M215.33 42.67 C166.57 42.83, 119.58 43.95, 10.67 42.67 M215.33 42.67 C140.34 41.01, 64.02 42.32, 10.67 42.67 M10.67 42.67 C3.03 41.03, -0.23 39.45, 0 32 M10.67 42.67 C5.46 41.11, 1.46 39.88, 0 32 M0 32 C-1.29 25.78, 0.11 19.64, 0 10.67 M0 32 C0.64 26.65, -0.76 19.86, 0 10.67 M0 10.67 C-0.59 1.98, 2.62 -1.65, 10.67 0 M0 10.67 C-1.8 3.74, 1.82 1.17, 10.67 0" stroke="#1e1e1e" stroke-width="2" fill="none"></path></g><g transform="translate(30.330047607421875 19.24281404346405) rotate(0 92.66995239257812 12.5)"><text x="92.66995239257812" y="0" font-family="Virgil, Segoe UI Emoji" font-size="20px" fill="#1e1e1e" text-anchor="middle" style="white-space: pre;" direction="ltr" dominant-baseline="text-before-edge">CLIENT REQUEST</text></g><g stroke-linecap="round"><g transform="translate(591.4424258393229 87.54445275039026) rotate(0 -169.0617474638642 46.68249815658805)"><path d="M-0.8 1.02 C-57.27 16.92, -281.76 78.89, -337.81 94.27 M0.98 0.52 C-55.7 16.18, -282.21 76.95, -338.59 92.62" stroke="#1e1e1e" stroke-width="2" fill="none"></path></g><g transform="translate(591.4424258393229 87.54445275039026) rotate(0 -169.0617474638642 46.68249815658805)"><path d="M-314.09 75.31 C-321.89 82.27, -331.43 90.06, -338.59 92.62 M-314.09 75.31 C-321.37 80.29, -329.02 85.45, -338.59 92.62" stroke="#1e1e1e" stroke-width="2" fill="none"></path></g><g transform="translate(591.4424258393229 87.54445275039026) rotate(0 -169.0617474638642 46.68249815658805)"><path d="M-308.69 95.11 C-318.37 94.48, -329.97 94.72, -338.59 92.62 M-308.69 95.11 C-317.51 94.25, -326.73 93.63, -338.59 92.62" stroke="#1e1e1e" stroke-width="2" fill="none"></path></g></g><mask></mask><g transform="translate(572.3409575180995 135.2346229524491) rotate(90.32397973314652 37.57550087445384 12.4554295272047)"><text x="0" y="0" font-family="Virgil, Segoe UI Emoji" font-size="19.928687243527513px" fill="#1e1e1e" text-anchor="start" style="white-space: pre;" direction="ltr" dominant-baseline="text-before-edge">time --&gt;</text></g><g stroke-linecap="round" transform="translate(627.3332977294922 62.27979817345917) rotate(0 107 22.333328247070312)"><path d="M11.17 0 C76.61 1.01, 139.79 -1.88, 202.83 0 M11.17 0 C63.78 0.22, 114.15 0.21, 202.83 0 M202.83 0 C211.68 0.37, 214.63 3.13, 214 11.17 M202.83 0 C212.28 1.47, 213.74 3.85, 214 11.17 M214 11.17 C214.61 16.19, 213.84 22.23, 214 33.5 M214 11.17 C213.7 15.68, 213.65 21.4, 214 33.5 M214 33.5 C213.34 40.07, 211.54 43.31, 202.83 44.67 M214 33.5 C215.04 40.33, 210.89 42.75, 202.83 44.67 M202.83 44.67 C136.58 46.06, 70.86 43.99, 11.17 44.67 M202.83 44.67 C126.64 45.67, 51.22 46.6, 11.17 44.67 M11.17 44.67 C5.02 44.01, -0.53 41.92, 0 33.5 M11.17 44.67 C1.56 46.28, 2.1 39.66, 0 33.5 M0 33.5 C-0.5 27.88, -1.41 23.39, 0 11.17 M0 33.5 C-0.43 29.14, -0.15 24.07, 0 11.17 M0 11.17 C-0.33 3.99, 3.18 1.15, 11.17 0 M0 11.17 C-0.3 4.89, 2.07 -1.8, 11.17 0" stroke="#1e1e1e" stroke-width="2" fill="none"></path></g><g transform="translate(638.313346862793 72.11312642052948) rotate(0 96.01995086669922 12.5)"><text x="96.01995086669922" y="0" font-family="Virgil, Segoe UI Emoji" font-size="20px" fill="#1e1e1e" text-anchor="middle" style="white-space: pre;" direction="ltr" dominant-baseline="text-before-edge">SERVER RESPONSE</text></g></svg>